HIERARCHY
ROOT hip
{
  OFFSET 0 0 0
  CHANNELS 6 Xposition Yposition Zposition Zrotation Yrotation Xrotation
  JOINT abdomen
  {
    OFFSET 0 20.6881 -0.73152
    CHANNELS 3 Zrotation Xrotation Yrotation
    JOINT chest
    {
      OFFSET 0 11.7043 -0.48768
      CHANNELS 3 Zrotation Xrotation Yrotation
      JOINT neck
      {
        OFFSET 0 22.1894 -2.19456
        CHANNELS 3 Zrotation Xrotation Yrotation
        JOINT head
        {
          OFFSET -0.24384 7.07133 1.2192
          CHANNELS 3 Zrotation Xrotation Yrotation
          JOINT leftEye
          {
            OFFSET 4.14528 8.04674 8.04672
            CHANNELS 3 Zrotation Xrotation Yrotation
            End Site
            {
              OFFSET 1 0 0
            }
          }
          JOINT rightEye
          {
            OFFSET -3.6576 8.04674 8.04672
            CHANNELS 3 Zrotation Xrotation Yrotation
            End Site
            {
              OFFSET 1 0 0
            }
          }
        }
      }
      JOINT rCollar
      {
        OFFSET -2.68224 19.2634 -4.8768
        CHANNELS 3 Zrotation Xrotation Yrotation
        JOINT rShldr
        {
          OFFSET -8.77824 -1.95073 1.46304
          CHANNELS 3 Zrotation Xrotation Yrotation
          JOINT rForeArm
          {
            OFFSET -28.1742 -1.7115 0.48768
            CHANNELS 3 Zrotation Xrotation Yrotation
            JOINT rHand
            {
              OFFSET -22.5879 0.773209 7.07136
              CHANNELS 3 Zrotation Xrotation Yrotation
              JOINT rThumb1
              {
                OFFSET -1.2192 -0.487915 3.41376
                CHANNELS 3 Zrotation Xrotation Yrotation
                JOINT rThumb2
                {
                  OFFSET -3.37035 -0.52449 3.41376
                  CHANNELS 3 Zrotation Xrotation Yrotation
                  End Site
                  {
                    OFFSET -1.78271 -1.18214 1.43049
                  }
                }
              }
              JOINT rIndex1
              {
                OFFSET -7.75947 0.938293 5.60832
                CHANNELS 3 Zrotation Xrotation Yrotation
                JOINT rIndex2
                {
                  OFFSET -2.54057 -0.884171 1.56538
                  CHANNELS 3 Zrotation Xrotation Yrotation
                  End Site
                  {
                    OFFSET -1.62519 -0.234802 1.16502
                  }
                }
              }
              JOINT rMid1
              {
                OFFSET -8.24714 1.18213 3.41376
                CHANNELS 3 Zrotation Xrotation Yrotation
                JOINT rMid2
                {
                  OFFSET -3.10165 -0.590103 1.0647
                  CHANNELS 3 Zrotation Xrotation Yrotation
                  End Site
                  {
                    OFFSET -2.48547 -0.328903 0.83742
                  }
                }
              }
              JOINT rRing1
              {
                OFFSET -8.82822 0.546677 1.51678
                CHANNELS 3 Zrotation Xrotation Yrotation
                JOINT rRing2
                {
                  OFFSET -2.60934 -0.819778 -0.0198488
                  CHANNELS 3 Zrotation Xrotation Yrotation
                  End Site
                  {
                    OFFSET -2.33842 -0.294052 0.168128
                  }
                }
              }
              JOINT rPinky1
              {
                OFFSET -8.27202 -0.0477905 -0.4584
                CHANNELS 3 Zrotation Xrotation Yrotation
                JOINT rPinky2
                {
                  OFFSET -1.82734 -0.647385 -0.700984
                  CHANNELS 3 Zrotation Xrotation Yrotation
                  End Site
                  {
                    OFFSET -1.69225 -0.51767 -0.607171
                  }
                }
              }
            }
          }
        }
      }
      JOINT lCollar
      {
        OFFSET 2.68224 19.2634 -4.8768
        CHANNELS 3 Zrotation Xrotation Yrotation
        JOINT lShldr
        {
          OFFSET 8.77824 -1.95073 1.46304
          CHANNELS 3 Zrotation Xrotation Yrotation
          JOINT lForeArm
          {
            OFFSET 28.1742 -1.7115 0.48768
            CHANNELS 3 Zrotation Xrotation Yrotation
            JOINT lHand
            {
              OFFSET 22.5879 0.773209 7.07136
              CHANNELS 3 Zrotation Xrotation Yrotation
              JOINT lThumb1
              {
                OFFSET 1.2192 -0.487915 3.41376
                CHANNELS 3 Zrotation Xrotation Yrotation
                JOINT lThumb2
                {
                  OFFSET 3.37035 -0.52449 3.41376
                  CHANNELS 3 Zrotation Xrotation Yrotation
                  End Site
                  {
                    OFFSET 1.78271 -1.18214 1.43049
                  }
                }
              }
              JOINT lIndex1
              {
                OFFSET 7.75947 0.938293 5.60832
                CHANNELS 3 Zrotation Xrotation Yrotation
                JOINT lIndex2
                {
                  OFFSET 2.54057 -0.884171 1.56538
                  CHANNELS 3 Zrotation Xrotation Yrotation
                  End Site
                  {
                    OFFSET 1.62519 -0.234802 1.16502
                  }
                }
              }
              JOINT lMid1
              {
                OFFSET 8.24714 1.18213 3.41376
                CHANNELS 3 Zrotation Xrotation Yrotation
                JOINT lMid2
                {
                  OFFSET 3.10165 -0.590103 1.0647
                  CHANNELS 3 Zrotation Xrotation Yrotation
                  End Site
                  {
                    OFFSET 2.48547 -0.328903 0.83742
                  }
                }
              }
              JOINT lRing1
              {
                OFFSET 8.82822 0.546677 1.51678
                CHANNELS 3 Zrotation Xrotation Yrotation
                JOINT lRing2
                {
                  OFFSET 2.60934 -0.819778 -0.0198488
                  CHANNELS 3 Zrotation Xrotation Yrotation
                  End Site
                  {
                    OFFSET 2.33842 -0.294052 0.168128
                  }
                }
              }
              JOINT lPinky1
              {
                OFFSET 8.27202 -0.0477905 -0.4584
                CHANNELS 3 Zrotation Xrotation Yrotation
                JOINT lPinky2
                {
                  OFFSET 1.82734 -0.647385 -0.700984
                  CHANNELS 3 Zrotation Xrotation Yrotation
                  End Site
                  {
                    OFFSET 1.69225 -0.51767 -0.607171
                  }
                }
              }
            }
          }
        }
      }
    }
  }
  JOINT rButtock
  {
    OFFSET -8.77824 4.35084 1.2192
    CHANNELS 3 Zrotation Xrotation Yrotation
    JOINT rThigh
    {
      OFFSET 0 -1.70687 -2.19456
      CHANNELS 3 Zrotation Xrotation Yrotation
      JOINT rShin
      {
        OFFSET 0 -36.8199 0.73152
        CHANNELS 3 Zrotation Xrotation Yrotation
        JOINT rFoot
        {
          OFFSET 0.73152 -45.1104 -5.12064
          CHANNELS 3 Zrotation Xrotation Yrotation
          End Site
          {
            OFFSET -1.1221 -3.69964 12.103
          }
        }
      }
    }
  }
  JOINT lButtock
  {
    OFFSET 8.77824 4.35084 1.2192
    CHANNELS 3 Zrotation Xrotation Yrotation
    JOINT lThigh
    {
      OFFSET 0 -1.70687 -2.19456
      CHANNELS 3 Zrotation Xrotation Yrotation
      JOINT lShin
      {
        OFFSET 0 -36.8199 0.73152
        CHANNELS 3 Zrotation Xrotation Yrotation
        JOINT lFoot
        {
          OFFSET -0.73152 -45.1104 -5.12064
          CHANNELS 3 Zrotation Xrotation Yrotation
          End Site
          {
            OFFSET 1.1221 -3.69964 12.103
          }
        }
      }
    }
  }
}
MOTION
Frames:	6
Frame Time:	0.00833333
48.1869 85.5269 256.944 0.0 0.0 0.0 2.34101 -0.00222417 0.0637214 0.646596 0.00594986 0.111938 1.26734e-14 7.95139e-16 5.71506e-16 3.81014e-14 9.54166e-15 1.7844e-15 -0.0 0.0 0.0 -0.0 0.0 0.0 6.50892e-15 -2.9313e-17 4.47265e-16 1.35985e-13 -2.91965e-16 7.55382e-15 2.3151e-12 -7.17016e-13 9.22361e-14 2.65147e-11 5.8388e-13 1.27222e-12 6.25385e-11 -2.96322e-13 2.95792e-12 1.07989e-10 -5.21611e-13 5.10002e-12 6.2544e-11 -2.95792e-13 2.94519e-12 7.73091 5.47488 0.417314 6.25382e-11 -2.95692e-13 2.94837e-12 2.90554 0.965183 0.102902 6.25493e-11 -2.96388e-13 2.95474e-12 10.2786 0.731801 0.0259123 6.25345e-11 -2.95394e-13 2.9611e-12 2.22167 -0.733487 -0.20892 6.31311e-15 -2.79541e-17 1.49089e-16 1.32454e-13 -2.85753e-16 5.96354e-15 2.31589e-12 6.7547e-13 1.11319e-13 2.65136e-11 -8.14321e-13 1.26268e-12 6.25373e-11 -3.08528e-13 2.9611e-12 1.08004e-10 -5.34333e-13 5.10559e-12 6.25333e-11 -3.07719e-13 2.9611e-12 -7.73091 5.47488 -0.417314 6.25381e-11 -3.08713e-13 2.95155e-12 -2.90554 0.965183 -0.102902 6.25345e-11 -3.08315e-13 2.95553e-12 -10.2786 0.731801 -0.0259123 6.25442e-11 -3.04936e-13 2.95155e-12 -2.22167 -0.733487 0.20892 -2.03217e-16 0.0 -3.88251e-19 2.21552 -8.02973 -0.231362 0.00607152 8.97368 0.15207 -0.477721 -0.951454 0.0348674 2.03217e-16 0.0 3.88251e-19 1.3521 -1.92788 -0.0053585 0.00846632 -2.07867 0.0694578 0.423829 3.99897 -0.127285
49.2663 84.1469 245.253 -179.074 2.7365 -179.398 2.6381 0.685035 0.930471 0.393862 -1.93355 0.381745 -1.43603 3.50624 -0.549343 2.4903 -5.83693 -0.641095 -0.0 0.0 0.0 -0.0 0.0 0.0 6.09702e-15 -7.94186e-15 -1.5202e-14 22.4332 12.2059 -1.7613 -5.08048 -2.51027 7.70392 0.0385476 4.35777 0.606065 8.17493e-11 1.78975e-11 -3.32692e-11 1.41089e-10 3.16868e-11 -5.8118e-11 8.17526e-11 1.78995e-11 -3.32775e-11 7.73091 5.47488 0.417314 8.17475e-11 1.79006e-11 -3.3276e-11 2.90554 0.965183 0.102902 8.17571e-11 1.79003e-11 -3.32684e-11 10.2786 0.731801 0.0259123 8.1745e-11 1.79013e-11 -3.32603e-11 2.22167 -0.733487 -0.20892 5.92363e-15 -7.94078e-15 -1.54299e-14 -21.9242 7.96387 2.75172 5.23972 -2.62662 -7.89939 -0.0367046 4.25188 -0.591634 2.77289e-13 -5.7538e-11 -3.51828e-11 -3.27113e-13 -9.95956e-11 -6.00575e-11 2.71479e-13 -5.75382e-11 -3.51792e-11 -7.73091 5.47488 -0.417314 2.7847e-13 -5.75408e-11 -3.51914e-11 -2.90554 0.965183 -0.102902 2.7196e-13 -5.75397e-11 -3.51862e-11 -10.2786 0.731801 -0.0259123 2.82064e-13 -5.75367e-11 -3.51896e-11 -2.22167 -0.733487 0.20892 -2.03217e-16 0.0 -3.88251e-19 4.4141 -9.61104 4.37025 0.033678 15.1882 0.291435 -1.96227 -7.06624 -7.86164 2.03217e-16 0.0 3.88251e-19 -0.610596 -4.61497 -5.73956 -0.0518188 5.96515 -0.161099 1.49883 -3.02819 6.83759
49.2189 84.1438 245.177 -178.815 2.1648 -179.35 2.93329 1.40798 1.84685 0.142178 -3.97936 0.667746 -2.88407 7.21178 -1.13559 4.99005 -12.0029 -1.33672 -0.0 0.0 0.0 -0.0 0.0 0.0 7.18327e-15 -1.67609e-14 -3.08147e-14 47.0395 25.085 -3.89889 -9.71809 -5.00774 15.8861 -0.0220406 8.95654 1.25763 9.13744e-11 5.68965e-11 -8.19703e-11 1.57502e-10 9.97766e-11 -1.42772e-10 9.13754e-11 5.69001e-11 -8.1974e-11 7.73091 5.47488 0.417314 9.13711e-11 5.69023e-11 -8.1974e-11 2.90554 0.965183 0.102902 9.13791e-11 5.69025e-11 -8.1965e-11 10.2786 0.731801 0.0259123 9.13699e-11 5.69034e-11 -8.19549e-11 2.22167 -0.733487 -0.20892 7.03029e-15 -1.67602e-14 -3.09669e-14 -45.954 16.3118 5.82805 9.99917 -5.23697 -16.303 0.0209858 8.74444 -1.2279 -7.83808e-11 -1.38676e-10 -8.70536e-11 -1.37172e-10 -2.39993e-10 -1.48728e-10 -7.83886e-11 -1.38677e-10 -8.70462e-11 -7.73091 5.47488 -0.417314 -7.83792e-11 -1.38681e-10 -8.70611e-11 -2.90554 0.965183 -0.102902 -7.83889e-11 -1.3868e-10 -8.70547e-11 -10.2786 0.731801 -0.0259123 -7.83783e-11 -1.38677e-10 -8.70575e-11 -2.22167 -0.733487 0.20892 -2.03217e-16 0.0 -3.88251e-19 7.02386 -11.1967 9.28969 0.0273289 21.7543 0.451846 -5.38223 -13.1239 -16.5251 2.03217e-16 0.0 3.88251e-19 -3.26459 -7.34902 -11.8631 -0.043356 14.4691 -0.41628 4.49978 -10.1769 14.4177
49.2126 84.1212 245.19 -178.633 2.3964 -179.1 3.1699 2.0576 2.66549 -0.0565479 -5.81193 0.925463 -4.10349 10.5148 -1.67305 7.06292 -17.5018 -2.00622 -0.0 0.0 0.0 -0.0 0.0 0.0 5.27322e-15 -2.37669e-14 -4.65005e-14 70.0116 36.4617 -6.42616 -13.2648 -6.9874 23.2724 -0.167138 13.0674 1.86115 1.20171e-10 5.42852e-11 -1.05723e-10 2.0729e-10 9.61037e-11 -1.84554e-10 1.2017e-10 5.42901e-11 -1.05723e-10 7.73091 5.47488 0.417314 1.20166e-10 5.42932e-11 -1.05725e-10 2.90554 0.965183 0.102902 1.20173e-10 5.42938e-11 -1.05715e-10 10.2786 0.731801 0.0259123 1.20166e-10 5.42947e-11 -1.05703e-10 2.22167 -0.733487 -0.20892 5.14468e-15 -2.37664e-14 -4.65878e-14 -68.237 23.6608 8.9317 13.6006 -7.28202 -23.8775 0.158937 12.7501 -1.81478 -1.24243e-10 -1.71997e-10 -1.1147e-10 -2.1699e-10 -2.97718e-10 -1.90384e-10 -1.24252e-10 -1.71999e-10 -1.1146e-10 -7.73091 5.47488 -0.417314 -1.24241e-10 -1.72005e-10 -1.11477e-10 -2.90554 0.965183 -0.102902 -1.24253e-10 -1.72003e-10 -1.1147e-10 -10.2786 0.731801 -0.0259123 -1.24242e-10 -1.72e-10 -1.11472e-10 -2.22167 -0.733487 0.20892 -2.03217e-16 0.0 -3.88251e-19 9.57767 -12.5011 13.7159 -0.0137515 27.6165 0.613214 -10.0377 -17.8245 -24.7351 2.03217e-16 0.0 3.88251e-19 -6.14079 -9.60691 -17.4037 0.0333776 22.0515 -0.6684 8.81293 -16.0055 21.6154
49.1126 84.1244 245.107 -178.701 2.2887 -179.156 3.30364 2.5257 3.23839 -0.161505 -7.11197 1.10871 -4.89601 12.8152 -2.06486 8.35704 -21.3415 -2.53318 -0.0 0.0 0.0 -0.0 0.0 0.0 -4.12764e-15 -2.62404e-14 -6.23687e-14 86.8922 44.2216 -8.89164 -15.4488 -8.18498 28.5174 -0.323128 15.964 2.30413 1.96895e-10 -5.23519e-11 -6.71065e-11 3.40512e-10 -8.69754e-11 -1.19157e-10 1.96893e-10 -5.23468e-11 -6.71033e-11 7.73091 5.47488 0.417314 1.9689e-10 -5.23432e-11 -6.71065e-11 2.90554 0.965183 0.102902 1.96896e-10 -5.23423e-11 -6.70962e-11 10.2786 0.731801 0.0259123 1.96891e-10 -5.23412e-11 -6.70843e-11 2.22167 -0.733487 -0.20892 -4.22159e-15 -2.624e-14 -6.24184e-14 -84.3827 28.7251 11.4743 15.7793 -8.48375 -29.2081 0.305811 15.5439 -2.24035 -8.81141e-11 -8.57764e-11 -6.72528e-11 -1.54241e-10 -1.48761e-10 -1.14502e-10 -8.8124e-11 -8.57792e-11 -6.72401e-11 -7.73091 5.47488 -0.417314 -8.81115e-11 -8.57851e-11 -6.72592e-11 -2.90554 0.965183 -0.102902 -8.81256e-11 -8.57825e-11 -6.72504e-11 -10.2786 0.731801 -0.0259123 -8.81149e-11 -8.57804e-11 -6.72528e-11 -2.22167 -0.733487 0.20892 -2.03217e-16 0.0 -3.88251e-19 11.4516 -13.3269 16.7996 -0.0659464 31.7197 0.740884 -14.1533 -20.5238 -30.7929 2.03217e-16 0.0 3.88251e-19 -8.44109 -11.026 -21.3129 0.131634 27.3312 -0.866622 12.7297 -19.6088 26.9516
49.0651 84.1049 245.118 -178.818 2.849 -178.945 3.30032 2.74377 3.46206 -0.139901 -7.67664 1.1848 -5.14891 13.7258 -2.23987 8.67095 -22.858 -2.81847 -0.0 0.0 0.0 -0.0 0.0 0.0 -3.09311e-14 -2.32068e-14 -8.36185e-14 93.8463 47.0527 -10.2577 -16.2897 -8.64528 30.6957 -0.400869 17.1781 2.49501 3.75356e-10 -3.82846e-10 1.0944e-10 6.51028e-10 -6.56229e-10 1.8327e-10 3.75354e-10 -3.82842e-10 1.09444e-10 7.73091 5.47488 0.417314 3.75351e-10 -3.82838e-10 1.09439e-10 2.90554 0.965183 0.102902 3.75357e-10 -3.82838e-10 1.09448e-10 10.2786 0.731801 0.0259123 3.75352e-10 -3.82836e-10 1.09459e-10 2.22167 -0.733487 -0.20892 -3.0969e-14 -2.32062e-14 -8.3665e-14 -91.0064 30.7654 12.7451 16.5608 -8.89163 -31.2986 0.376214 16.6599 -2.41492 1.23822e-10 2.47762e-10 1.08476e-10 2.13908e-10 4.27529e-10 1.86309e-10 1.23814e-10 2.4776e-10 1.08489e-10 -7.73091 5.47488 -0.417314 1.23826e-10 2.47755e-10 1.08469e-10 -2.90554 0.965183 -0.102902 1.23812e-10 2.47758e-10 1.08479e-10 -10.2786 0.731801 -0.0259123 1.23821e-10 2.4776e-10 1.08476e-10 -2.22167 -0.733487 0.20892 -2.03217e-16 0.0 -3.88251e-19 12.1459 -13.5916 17.9739 -0.093052 33.3536 0.797007 -15.9791 -21.3918 -33.3155 2.03217e-16 0.0 3.88251e-19 -9.4548 -11.4956 -22.8326 0.181315 29.3853 -0.949483 14.4233 -20.8979 29.0474
